<?xml version="1.0" encoding="UTF-8"?>
<svg xmlns="http://www.w3.org/2000/svg" version="1.1" viewBox="0 0 5442.519685 5442.519685">
  <defs>
    <style>
      .cls-1 {
        fill: #fff;
        stroke: #fbb040;
        stroke-miterlimit: 10;
        stroke-width: 252px;
      }
    </style>
  </defs>
  <!-- Generator: Adobe Illustrator 28.6.0, SVG Export Plug-In . SVG Version: 1.2.0 Build 709)  -->
  <g>
    <g id="Layer_1">
      <circle class="cls-1" cx="2721.2600098" cy="2721.2598425" r="2565.7890146"/>
      <path class="cls-1" d="M2776.5821959,4885.3032588c-18.4782342,119.6953019-28.3331434,240.4797664-29.5445945,361.3559473-17.1850089.1834327-34.3705149.1834327-51.5555237,0-103.263411-1.028267-206.455487-8.3784996-308.9757221-22.0208714,1.9750084-120.4382291,11.4633007-240.7954297,28.4348019-360.2869175,16.9101084-119.1656337,41.2929864-237.476491,73.1486341-354.1784596,12.7259539-46.7097191,26.6531683-93.1542313,41.7920824-139.2833288,50.4763032-154.0143661,114.2688756-304.6083835,191.3779657-450.0101123,63.3653084-119.5424413,135.739946-235.5521876,217.0846412-347.0519254,73.525193-100.7691737,154.3911736-197.8632311,242.6175776-290.5283086,16.5842544-17.4193951,33.4334671-34.6961203,50.5371989-51.7998521,17.1037318-17.1037318,34.380457-33.9529445,51.7998521-50.5371989,92.665326-88.2266525,189.7591349-169.0923845,290.5285571-242.6178261,111.4994893-81.3444466,227.5094841-153.7193328,347.0516769-217.0843926,145.4017288-77.1090901,295.9957462-140.9016625,450.0102366-191.37809,46.1289732-15.1387898,92.5736097-29.0661285,139.2832045-41.7919581,116.7019686-31.8556476,235.0127016-56.2384014,354.1784596-73.1486341,119.4914878-16.9715012,239.8486884-26.4597935,360.2870418-28.4349261,13.6422475,102.5203594,20.9926044,205.7123112,22.0207471,308.9758464.1834327,17.1850089.183557,34.3703906.0001243,51.5553995-120.8761809,1.2114512-241.6607698,11.0664846-361.3559473,29.5445945-123.350161,19.0177202-245.5395759,47.1981273-365.4893968,84.5410969-50.0587328,15.5664266-99.7308403,32.7411205-148.9242331,51.5145124-150.6142746,57.419529-296.8096356,129.7844729-436.3474835,217.0947076-113.5256998,71.0105744-222.6328588,151.9173178-326.0797025,242.7197332-41.5576962,36.4469332-82.1994717,74.5027551-121.8534944,114.1567778-39.6540227,39.6540227-77.7095961,80.2955497-114.1567778,121.8534944-90.8024154,103.4468437-171.7091588,212.5540027-242.7197332,326.0797025-87.3099861,139.5375993-159.6751786,285.7332089-217.0945833,436.3473592-18.7735161,49.1935171-35.9480858,98.8655002-51.5145124,148.9242331-37.3429696,119.9498209-65.523501,242.1393601-84.5410969,365.4893968Z"/>
      <path class="cls-1" d="M3554.8707175,4719.6724828c-43.1969084,134.5791998-70.1963122,273.2210112-80.9875234,412.9012804-19.5982176,6.1186486-39.2570823,11.972836-58.9877791,17.5717586-100.9319764,28.7300838-203.2991024,51.0569248-306.4916756,66.9593962,3.1762689-125.3459237,17.1750667-250.4572126,42.0262201-373.8176886l.0101907-.0101907c27.691626-137.7050122,68.8931447-273.2212598,123.5943651-404.440758l.0101907-.0101907c6.8923965-16.5845029,14.00874-33.0877288,21.3490305-49.5091804,64.3528126-144.1902776,145.2794403-282.7605056,242.7602474-412.8605176,61.2985837-81.8430455,129.1632127-160.3164474,203.5745-234.7277347,74.4112873-74.4112873,152.8846891-142.2759164,234.7277347-203.5745,130.100012-97.4808071,268.6704885-178.4076834,412.8605176-242.7602474,16.4217002-7.340539,32.9246775-14.456634,49.5091804-21.3490305l.0101907-.0101907c131.2194982-54.7012205,266.7358701-95.9028634,404.4408823-123.5944894l.0101907-.0101907c123.3603517-24.8510291,248.4716406-38.849827,373.81744-42.0259715-15.9022228,103.1923246-38.2290639,205.5594506-66.9592719,306.4915513-5.5989226,19.7306968-11.45311,39.3895615-17.5716343,58.9876548-139.6803934,10.7913355-278.3222049,37.7907393-412.9014047,80.9876477-100.1075235,32.120606-197.985271,73.2102754-292.3303235,123.2690082-154.7883626,82.1176975-300.1289472,188.3438696-430.4936689,318.7085914-130.3647218,130.3647218-236.5906453,275.7050578-318.7085914,430.4936689-50.0587328,94.3450525-91.1484022,192.2228-123.2690082,292.3303235Z"/>
      <path class="cls-1" d="M2027.624264,5150.1455218c-19.7306968-5.5989226-39.3895615-11.45311-58.9877791-17.5717586-100.2089335-31.1636739-198.840296-68.7303419-295.2925876-112.6910561,8.8162028-126.8315297,24.3421152-253.266616,46.53598-378.7544639,12.6449254-71.611826,27.4778698-142.9077401,44.5000759-213.7860839,12.1967829-50.9040643,25.5334335-101.583933,39.9798767-152.0294156,28.8730022-100.7284109,62.2045622-200.4591269,100.005865-298.8563518,48.0225802-125.0096304,103.2532203-247.8812011,165.7018623-367.9938248,57.6741723-110.9193647,121.4975654-219.4769714,191.4900634-325.1632847,66.7757149-100.8608901,139.1508496-199.0950637,217.1455368-294.2747598-4.1739638-4.2356051-8.3583668-8.4398924-12.5631512-12.6446768-4.2047844-4.2047844-8.4090717-8.3891874-12.6446768-12.5631512-95.1796961,77.9946872-193.4138698,150.3698219-294.2747598,217.1455368-105.6863133,69.9924981-214.2439199,133.8158911-325.1632847,191.4900634-120.1126237,62.448642-242.9841944,117.6792821-367.9938248,165.7018623-98.3972249,37.8013028-198.1279409,71.1328628-298.8563518,100.005865-50.4457311,14.4461947-101.1253513,27.7830938-152.0294156,39.9798767-70.8785923,17.0219576-142.1742579,31.8551505-213.7860839,44.5000759-125.4878479,22.1938648-251.9229343,37.7197772-378.7544639,46.53598-43.9607142-96.4522915-81.5276308-195.0839027-112.6911804-295.2927118-6.1185243-19.5980933-11.9727117-39.2569581-17.5716343-58.9876548,122.586231-4.5709042,244.9589542-16.0752162,366.476901-34.4821155,119.5116206-18.091236,238.1992854-42.871303,355.4609972-74.3297616,12.9807216-3.4715508,25.9507553-7.0348179,38.890714-10.6898013,154.6456927-43.5327046,306.7056804-98.7531539,454.7746399-165.661348,123.2687597-55.7093546,243.7783237-119.4914878,360.7146786-191.3884049,106.7451524-65.6149687,210.5076594-137.9796642,310.6860207-217.0841441,94.7526807-74.8186669,186.3082141-155.6640176,274.1170476-242.5566819,4.2353565-4.1742123,8.4398924-8.3583668,12.6446768-12.5631512l510.2396662,510.2396662c-4.2047844,4.2047844-8.3891874,8.4090717-12.5631512,12.6446768-86.8926643,87.8088336-167.7380149,179.3643669-242.5566819,274.1170476-79.1044799,100.1783614-151.4694239,203.9406198-217.0843926,310.6857722-71.8966686,116.9366034-135.6788017,237.4461675-191.3881564,360.7149271-66.9081941,148.0689595-122.1286434,300.1289472-165.661348,454.7746399-3.6549834,12.9399587-7.2182505,25.9099925-10.6900499,38.8904655-31.4582101,117.2619603-56.2382771,235.9496251-74.3295131,355.4612457-18.4068993,121.5179468-29.9112114,243.8906701-34.4821155,366.476901Z"/>
      <path class="cls-1" d="M5150.1455971,2027.6241887c-122.5864795,4.5711527-244.9592028,16.0754648-366.4770253,34.4822398-119.5117449,18.0913603-238.1991612,42.8711787-355.46137,74.3296374-12.980473,3.4717993-25.9505068,7.0350664-38.8904655,10.6900499-154.6456927,43.5327046-306.7056804,98.7531539-454.7746399,165.661348-123.2685111,55.7091061-243.7783237,119.4914878-360.7146786,191.3879078-106.745401,65.6152173-210.5076594,137.9801613-310.6860207,217.0846412-94.7524322,74.8184184-186.3082141,155.6640176-274.1170476,242.5566819-4.2356051,4.1739638-8.4398924,8.3583668-12.6446768,12.5631512l-510.2396662-510.2396662c4.2047844-4.2047844,8.3889389-8.4093203,12.5631512-12.6446768,86.8926643-87.8088336,167.7382635-179.3646155,242.5566819-274.1170476,79.1044799-100.1783614,151.4691753-203.9408683,217.0843926-310.6862693,71.8966686-116.9361063,135.6790503-237.4459189,191.3881564-360.71443,66.9081941-148.0689595,122.1286434-300.1289472,165.661348-454.7746399,3.6549834-12.9399587,7.2182505-25.9099925,10.6898013-38.890714,31.4587072-117.2619603,56.2385257-235.9493765,74.3298859-355.4611214,18.406775-121.5178225,29.9110871-243.8905458,34.4822398-366.4770253,19.7301997,5.5994197,39.3893129,11.4533585,58.987282,17.5720071,100.209182,31.1631768,198.8405446,68.7303419,295.2930847,112.6908076-8.8167,126.8320268-24.3423637,253.2668646-46.5364771,378.754961-12.6444283,71.6113289-27.4778698,142.907243-44.4998274,213.7858353-12.1965344,50.9038157-25.5335578,101.5835602-39.9798767,152.0294156-28.8728779,100.7282866-62.2045622,200.4591269-100.0057407,298.8562275-48.0225802,125.0096304-103.2533445,247.8813254-165.7019866,367.9939491-57.6741723,110.9193647-121.4973168,219.4767228-191.4900634,325.1632847-66.7757149,100.8608901-139.1508496,199.0950637-217.1455368,294.2747598,4.1742123,4.2353565,8.3583668,8.4398924,12.5631512,12.6446768,4.2047844,4.2047844,8.4093203,8.3889389,12.6446768,12.5631512,95.1796961-77.9946872,193.4138698-150.3698219,294.2747598-217.1455368,105.6865618-69.9927466,214.2439199-133.8158911,325.1632847-191.4900634,120.1126237-62.448642,242.9843187-117.6794064,367.9939491-165.7019866,98.3971006-37.8011785,198.1279409-71.1328628,298.8562275-100.0057407,50.4456068-14.4465675,101.1255998-27.7833424,152.0294156-39.9798767,70.8783438-17.0222061,142.1745064-31.8553991,213.7858353-44.4998274,125.4880964-22.1941134,251.9229343-37.7197772,378.754961-46.5364771,43.9604657,96.4525401,81.5273822,195.0836541,112.6906833,295.2929604,6.1187729,19.5980933,11.9727117,39.2572066,17.5721314,58.9874063Z"/>
      <path class="cls-1" d="M2211.0204219,2211.0205952c-17.1037318,17.1037318-34.380457,33.9529445-51.7998521,50.5371989-92.6650775,88.2264039-189.7591349,169.0923845-290.5283086,242.6175776-111.4997378,81.3446952-227.5094841,153.7193328-347.0519254,217.0846412-145.4017288,77.1090901-295.9957462,140.9016625-450.0101123,191.3779657-46.1292217,15.1387898-92.5737339,29.0660042-139.2833288,41.7920824-116.7019686,31.8556476-235.0127016,56.2386499-354.1784596,73.1486341-119.4914878,16.9715012-239.8485641,26.4599177-360.2869175,28.4348019-13.6422475-102.5201109-20.9927286-205.7124354-22.0209956-308.9758464-.1834327-17.1850089-.1833084-34.3703906.0001243-51.5553995,120.8761809-1.2114512,241.6606455-11.0663603,361.3559473-29.5445945,123.3500368-19.017596,245.5395759-47.1981273,365.4893968-84.5410969,50.0587328-15.5664266,99.7304674-32.7412448,148.9241088-51.5146366,150.6141503-57.4194047,296.8100084-129.7843487,436.3474835-217.094459,113.5254512-71.0108229,222.6328588-151.9173178,326.0797025-242.7197332,41.5579447-36.4471818,82.1994717-74.5027551,121.8534944-114.1567778s77.7098446-80.2957982,114.1567778-121.8534944c90.8024154-103.4468437,171.7089102-212.5542513,242.7197332-326.0797025,87.3103589-139.5377236,159.6750543-285.7333332,217.0945833-436.3476077,18.7732676-49.1935171,35.94821-98.865376,51.5146366-148.9241088,37.3429696-119.9498209,65.5233767-242.1392358,84.5410969-365.4893968,18.47811-119.6951776,28.3331434-240.4797664,29.5445945-361.3559473,17.1850089-.1834327,34.3702663-.1834327,51.5552752,0,103.2635352,1.0281427,206.4557355,8.3787482,308.9759707,22.0208714-1.9750084,120.4384777-11.463425,240.795554-28.4349261,360.2870418-16.9101084,119.1658823-41.2929864,237.476491-73.1486341,354.1784596-12.7259539,46.7094705-26.6532926,93.154107-41.7919581,139.2832045-50.4764275,154.0144904-114.2689999,304.6085078-191.37809,450.0102366-63.3650599,119.5421927-135.739946,235.5521876-217.0843926,347.0516769-73.5254416,100.7694223-154.3911736,197.8632311-242.6178261,290.5285571-16.5842544,17.4193951-33.4334671,34.6961203-50.5371989,51.7998521Z"/>
      <path class="cls-1" d="M1700.7909464,1700.7911197c-74.4112873,74.4112873-152.8844406,142.2761649-234.7276104,203.5746243-130.0998877,97.4809314-268.6701156,178.4075591-412.8603933,242.7603717-16.4215759,7.3401662-32.9246775,14.456634-49.5091804,21.3490305l-.0101907.0101907c-131.2197468,54.7009719-266.7357458,95.9027391-404.4305673,123.6045558-123.3706667,24.8409626-248.4922706,38.849827-373.8379457,42.0263444,15.9025956-103.1924489,38.2289396-205.560072,66.9590234-306.4920484,5.5994197-19.7301997,11.4533585-39.3893129,17.5721314-58.9874063,139.6798963-10.7915841,278.3217078-37.7909878,412.9010318-80.987772,100.1076478-32.1204817,197.9853953-73.2101511,292.3304478-123.268884,154.7884869-82.1180703,300.1289472-188.3438696,430.4936689-318.7085914,130.3647218-130.3647218,236.5907696-275.7054306,318.7085914-430.4936689,50.0587328-94.3450525,91.1484022-192.2228,123.268884-292.3304478,43.1967841-134.5793241,70.1961879-273.2211355,80.9878962-412.9011561,19.5979691-6.1186486,39.2570823-11.9725874,58.987282-17.5720071,100.9321007-28.730208,203.2997238-51.056552,306.4919241-66.9588991-3.1763931,125.3455508-17.1851332,250.4670305-42.0260958,373.8376972-27.7018167,137.6948215-68.9037082,273.2109448-123.6046801,404.4306916l-.0101907.0101907c-6.8923965,16.5845029-14.0086158,33.0873559-21.3490305,49.5091804-64.3525641,144.1900291-145.2794403,282.7605056-242.7603717,412.8603933-61.2984594,81.8431698-129.163337,160.3163231-203.5746243,234.7276104Z"/>
      <line class="cls-1" x1="1700.7910459" y1="1700.7911993" x2="1445.6713023" y2="1445.6714557"/>
      <line class="cls-1" x1="2211.0203523" y1="2211.0205057" x2="1955.9107895" y2="1955.9109429"/>
      <line class="cls-1" x1="3486.6088895" y1="3486.6090429" x2="3231.4993267" y2="3231.4994801"/>
      <line class="cls-1" x1="3996.8483767" y1="3996.8485302" x2="3741.7286331" y2="3741.7287865"/>
    </g>
  </g>
</svg>